<?xml version="1.0" encoding="utf-8"?>
<!-- Svg Vector Icons : http://www.onlinewebfonts.com/icon -->
<!DOCTYPE svg PUBLIC "-//W3C//DTD SVG 1.1//EN" "http://www.w3.org/Graphics/SVG/1.1/DTD/svg11.dtd">
<svg version="1.1" xmlns="http://www.w3.org/2000/svg" xmlns:xlink="http://www.w3.org/1999/xlink" x="0px" y="0px" viewBox="0 0 1000 1000" enable-background="new 0 0 1000 1000" xml:space="preserve">
<metadata> Svg Vector Icons : http://www.onlinewebfonts.com/icon </metadata>
<g><g><g><path d="M317.7,557.4c-0.4-43-35.6-77.5-78.5-77.1c-43,0.4-77.4,35.6-77,78.5c0,3.3,0.3,6.6,0.8,9.8c5.2,38.3,38.1,67.7,77.7,67.3c40.7-0.4,73.8-32,76.8-71.9C317.5,561.8,317.7,559.6,317.7,557.4z M232.7,509.9l0.2,22.4c-2.4,0.7-4.7,1.6-6.8,2.9l-16-15.7C216.5,514.5,224.2,511.2,232.7,509.9z M200.6,529.2l16,15.7c-1.2,2.2-2.2,4.4-2.8,6.9l-22.4,0.2C192.6,543.5,195.8,535.7,200.6,529.2z M191.6,565.4l22.5-0.2c0.7,2.4,1.6,4.7,2.9,6.7l-15.8,16C196.2,581.6,192.8,573.9,191.6,565.4z M210.9,597.4l15.7-16c2.1,1.2,4.4,2.1,6.8,2.7l0.2,22.4C225.2,605.4,217.4,602.2,210.9,597.4z M288.1,551.1l-22.4,0.2c-0.6-2.4-1.6-4.7-2.9-6.8l15.7-16C283.5,534.9,286.8,542.6,288.1,551.1z M246.1,509.8c8.5,1.1,16.3,4.3,22.8,9.2l-15.7,16c-2.1-1.2-4.4-2.2-6.9-2.8L246.1,509.8z M247,606.4l-0.2-22.4c2.4-0.6,4.7-1.6,6.7-2.8l16,15.7C263.1,601.7,255.5,605.1,247,606.4z M279.1,587.3L263,571.5c1.2-2.1,2.2-4.3,2.8-6.8l22.3-0.2C287.1,573,284,580.8,279.1,587.3z"/><path d="M842.4,477.1c-43,0.4-77.4,35.6-77,78.5c0,3.3,0.3,6.6,0.8,9.8c5.2,38.3,38.1,67.6,77.7,67.3c40.7-0.4,73.8-32,76.8-71.9c0.2-2.2,0.3-4.4,0.3-6.7C920.6,511.2,885.4,476.7,842.4,477.1z M836,506.7l0.2,22.4c-2.5,0.7-4.7,1.7-6.8,2.9l-16-15.7C819.8,511.3,827.5,508,836,506.7z M803.9,526l16,15.7c-1.2,2.1-2.2,4.4-2.8,6.8l-22.4,0.2C795.9,540.3,799.1,532.5,803.9,526z M794.9,562.2l22.5-0.2c0.6,2.4,1.6,4.7,2.9,6.8l-15.8,16C799.6,578.4,796.1,570.7,794.9,562.2z M814.2,594.1l15.7-16c2.1,1.2,4.4,2.1,6.8,2.7l0.2,22.4C828.5,602.2,820.8,599,814.2,594.1z M891.4,547.9l-22.4,0.2c-0.6-2.4-1.6-4.7-2.9-6.8l15.7-16C886.8,531.7,890.2,539.4,891.4,547.9z M849.4,506.6c8.5,1.1,16.2,4.3,22.8,9.2l-15.7,16c-2.1-1.3-4.5-2.2-6.9-2.8L849.4,506.6z M850.4,603.2l-0.2-22.4c2.4-0.6,4.7-1.6,6.7-2.8l16,15.7C866.4,598.5,858.8,601.9,850.4,603.2z M882.4,584.1l-16.1-15.8c1.2-2.1,2.2-4.3,2.8-6.8l22.4-0.2C890.4,569.8,887.3,577.6,882.4,584.1z"/><path d="M989.3,515.7c-0.9-1.9-2.5-3.4-4.6-4l-8-2.6l5.7-26.6c1.1-5.1-1.5-10.2-6.2-12.4l-10.4-4.9l5.7-32.4c1-5.9-2.8-11.6-8.7-12.8c-64.5-13.3-377.5-96.9-580.4-30.8c-59.4,19.3-151,54.4-151,54.4S94,466.9,10,549.3l7.5,17.5l-5.7,22.9c-0.4,1.8-0.1,3.6,1,5.1c1.1,1.4,2.8,2.3,4.6,2.4l141.4,7.1l6.4-0.1c-6.4-10.2-10.7-21.8-12.4-34.3c-0.6-4-0.8-7.6-0.9-11.1c-0.5-48.5,38.7-88.4,87.2-88.9c48.9,0,88.4,39.1,88.9,87.2c0,2.5-0.1,5-0.3,7.5c-1,13.7-5.3,26.6-12,37.8l438.8-4.9l11.5-0.8c-5-9.2-8.4-19.3-9.9-30.2c-0.6-4-0.8-7.6-0.9-11.1c-0.5-48.5,38.7-88.4,87.2-88.9c48.9,0,88.4,39.1,88.9,87.2c0,2.5-0.1,5-0.3,7.5c-0.6,8.7-2.7,17.1-5.7,24.9l7.1-0.5c8.4-0.6,16-5.3,20.1-12.6l20.1-10l17-41.7C990.2,519.8,990.2,517.6,989.3,515.7z M288.9,447.7c-1.8-0.6-3-2.2-3.1-4.1c-0.1-1.9,1-3.6,2.7-4.4c9.1-4.1,24.3-10.6,45.3-18.2v38.1C318.9,457,300.4,451.5,288.9,447.7z M413.4,434.2c-2.5-5.2-8-8.4-13.8-7.9c-16.2,1.4-47.5,5.5-51.3,17.8c-1.9,6,19.2,15.8,19.2,15.8s-11.8,0.6-24.2,0.1v-42.3c20.7-7.2,46.3-15.2,76.7-23.1c43.6-11.3,104-13.7,159.9-10.5l17.2,52.9c-97.3,14.6-184.4,18.1-184.4,18.1l2.1-10.9C415.4,440.7,414.9,437.3,413.4,434.2z M626.5,432.2l-14.8-45.7c50.5,5,93.2,14.3,109.8,25.1C691.3,419.9,658.7,426.7,626.5,432.2z"/></g></g><g></g><g></g><g></g><g></g><g></g><g></g><g></g><g></g><g></g><g></g><g></g><g></g><g></g><g></g><g></g></g>
</svg>